{
.appVersion = "3343";
.formatVersion = 3;
DisplayStrings = (
g,
"I made a dumb monospaced font intended to be Superelliptical 
and sans and Have Expansion 
Contrast For what reason I cannot explain but now I think I should 
make this fully proportional.  ",
"Glowing ",
j,
"fuck ",
f,
abc,
"rochet quintetts suspectable crevice sonata pigheaded firewoman Pashtun dysrhythmia spatchcocked eclipses overextend koniscope chantry disusage subnatural financialist suffetes columns inherency internal hoddling formulism pyretic estovers meritocracy patronised springalds tormentils era phonemicists encroachment Europe Lindbergh charring rake foreshowing Eastertide axilla despoiling satraps fitter insection rebeller juncuses Tonbridge typhoid unlooked cyprid spaniolate federacies satiric cankers blamelessly entropions cuckoo britzskas tricar detribalizes mentation June pageants apteryx reprehensive masculinised ergogram slades unfrozen dyschroa sneezers journos remonstrates approaches resurveying virge carpophores shover begin brickfields bulbils Garonne foretelling mulley hominy mistitles abeyant coble zygodactyl disulphide prewarn gunnels stivers glorify Jenner personals courtier unpapering tatterdemalion plebeianising mercurialists scrounge tribunicial inflorescence bravadoes kashrut tolled badman swingboat callowest coachy inseminator philologers powellite humane introspects velarizations avoided ravens dissolutionists krimmers scufts misinformation ingroups squalidity haematoceles upsey fluky mended endears outworn hoopoes videotapes effulgences cab unrein shadowless loathe eternalists sacroiliitis essentially draft aggravated recumbent thread ferrugineous therapeutist Toledos undercooked intertexture influential",
pliant,
k,
l,
ABCDEFGHIJKLMNOPQRSTUVWXYZabcdefghijklmnopqrstuvwxyz,
BCDEFGHIJLNOPTUZabcdefghijklmnopqrstuvwxyz,

glyphs = (
{
glyphname = A;
lastChange = "2025-06-27 16:31:52 +0000";
layers = (
{
layerId = m01;
shapes = (
{
closed = 1;
nodes = (
(499,0,l),
(311,700,l),
(229,700,l),
(417,0,l)
);
},
{
closed = 1;
nodes = (
(41,0,l),
(82,0,l),
(270,700,l),
(229,700,l)
);
},
{
closed = 1;
nodes = (
(386,335,l),
(148,335,l),
(148,304,l),
(386,304,l)
);
}
);
width = 540;
}
);
unicode = 65;
},
{
glyphname = B;
lastChange = "2025-06-20 19:06:16 +0000";
layers = (
{
layerId = m01;
shapes = (
{
closed = 1;
nodes = (
(290,0,l),
(400,0,o),
(510,41,o),
(510,178,cs),
(510,178,o),
(510,177,o),
(510,234,cs),
(510,358,o),
(390,406,o),
(280,406,c),
(124,405,l),
(124,376,l),
(280,376,l),
(377,376,o),
(427,323,o),
(427,242,cs),
(427,160,ls),
(427,73,o),
(405,30,o),
(290,30,c),
(142,30,l),
(144,0,l)
);
},
{
closed = 1;
nodes = (
(152,0,l),
(152,700,l),
(70,700,l),
(70,0,l)
);
},
{
closed = 0;
nodes = (
(70,264,l)
);
},
{
closed = 1;
nodes = (
(250,376,l),
(340,376,o),
(470,405,o),
(470,553,cs),
(470,643,o),
(408,701,o),
(250,701,c),
(124,700,l),
(109,671,l),
(250,671,l),
(327,671,o),
(387,640,o),
(387,578,cs),
(387,522,ls),
(387,465,o),
(345,406,o),
(250,406,c),
(142,406,l),
(144,376,l)
);
}
);
width = 540;
}
);
unicode = 66;
},
{
glyphname = C;
lastChange = "2025-06-20 22:48:22 +0000";
layers = (
{
layerId = m01;
shapes = (
{
closed = 0;
nodes = (
(70,264,l)
);
},
{
closed = 1;
nodes = (
(427,224,l),
(427,57,o),
(405,14,o),
(290,14,cs),
(193,14,o),
(153,71,o),
(153,274,cs),
(153,416,ls),
(153,608,o),
(193,685,o),
(290,685,cs),
(387,685,o),
(427,628,o),
(427,466,c),
(510,466,l),
(507,665,o),
(399,715,o),
(290,715,cs),
(180,715,o),
(70,643,o),
(70,408,cs),
(70,292,ls),
(70,45,o),
(180,-16,o),
(290,-16,cs),
(397,-16,o),
(504,22,o),
(510,224,c)
);
}
);
width = 540;
}
);
unicode = 67;
},
{
glyphname = D;
lastChange = "2025-06-20 22:41:52 +0000";
layers = (
{
layerId = m01;
shapes = (
{
closed = 1;
nodes = (
(152,0,l),
(152,700,l),
(70,700,l),
(70,0,l)
);
},
{
closed = 0;
nodes = (
(70,264,l)
);
},
{
closed = 1;
nodes = (
(142,30,l),
(144,0,l),
(250,0,l),
(360,0,o),
(510,61,o),
(510,308,cs),
(510,308,o),
(510,357,o),
(510,394,cs),
(510,629,o),
(360,701,o),
(250,701,c),
(124,700,l),
(109,671,l),
(250,671,l),
(347,671,o),
(427,594,o),
(427,402,cs),
(427,290,ls),
(427,93,o),
(365,30,o),
(250,30,c)
);
}
);
width = 540;
}
);
unicode = 68;
},
{
glyphname = E;
lastChange = "2025-06-20 18:46:14 +0000";
layers = (
{
layerId = m01;
shapes = (
{
closed = 1;
nodes = (
(152,0,l),
(152,669,l),
(510,669,l),
(510,700,l),
(152,700,l),
(152,700,l),
(70,700,l),
(70,0,l)
);
},
{
closed = 1;
nodes = (
(510,0,l),
(510,31,l),
(152,31,l),
(152,0,l)
);
},
{
closed = 1;
nodes = (
(428,370,l),
(428,401,l),
(152,401,l),
(152,370,l)
);
}
);
width = 540;
}
);
unicode = 69;
},
{
glyphname = F;
lastChange = "2025-06-20 22:42:23 +0000";
layers = (
{
layerId = m01;
shapes = (
{
closed = 1;
nodes = (
(152,0,l),
(152,669,l),
(510,669,l),
(510,700,l),
(152,700,l),
(152,700,l),
(70,700,l),
(70,0,l)
);
},
{
closed = 1;
nodes = (
(428,300,l),
(428,331,l),
(152,331,l),
(152,300,l)
);
}
);
width = 540;
}
);
unicode = 70;
},
{
glyphname = G;
lastChange = "2025-06-21 00:45:31 +0000";
layers = (
{
layerId = m01;
shapes = (
{
closed = 0;
nodes = (
(50,264,l)
);
},
{
closed = 1;
nodes = (
(50,45,o),
(160,-16,o),
(270,-16,cs),
(271,-16,l),
(271,14,l),
(270,14,ls),
(173,14,o),
(133,71,o),
(133,274,cs),
(133,416,ls),
(133,608,o),
(173,685,o),
(270,685,cs),
(367,685,o),
(407,628,o),
(407,466,c),
(490,466,l),
(487,665,o),
(379,715,o),
(270,715,cs),
(160,715,o),
(50,643,o),
(50,408,cs),
(50,292,l),
(50,291,ls)
);
},
{
closed = 1;
nodes = (
(490,291,l),
(490,322,l),
(294,322,l),
(294,291,l)
);
},
{
closed = 1;
nodes = (
(269,-16,o),
(270,-16,o),
(270,-16,cs),
(380,-16,o),
(490,45,o),
(490,291,c),
(407,291,l),
(407,274,ls),
(407,71,o),
(367,14,o),
(270,14,cs),
(270,14,o),
(269,14,o),
(269,14,c),
(269,-16,l)
);
}
);
width = 540;
}
);
unicode = 71;
},
{
glyphname = H;
lastChange = "2025-06-20 18:13:52 +0000";
layers = (
{
layerId = m01;
shapes = (
{
closed = 1;
nodes = (
(152,0,l),
(152,370,l),
(428,370,l),
(428,0,l),
(510,0,l),
(510,700,l),
(428,700,l),
(428,401,l),
(152,401,l),
(152,700,l),
(70,700,l),
(70,0,l)
);
}
);
width = 540;
}
);
unicode = 72;
},
{
glyphname = I;
lastChange = "2025-06-20 22:43:00 +0000";
layers = (
{
layerId = m01;
shapes = (
{
closed = 1;
nodes = (
(470,700,l),
(71,700,l),
(71,670,l),
(470,670,l)
);
},
{
closed = 1;
nodes = (
(228,700,l),
(228,32,l),
(70,32,l),
(70,0,l),
(470,0,l),
(470,32,l),
(310,32,l),
(310,700,l)
);
}
);
width = 540;
}
);
unicode = 73;
},
{
glyphname = J;
lastChange = "2025-06-20 22:46:54 +0000";
layers = (
{
layerId = m01;
shapes = (
{
closed = 1;
nodes = (
(440,248,l),
(440,700,l),
(141,700,l),
(141,670,l),
(358,670,l),
(358,248,l)
);
},
{
closed = 1;
nodes = (
(358,232,ls),
(358,100,o),
(347,12,o),
(250,12,cs),
(180,12,o),
(149,59,o),
(149,135,c),
(71,135,l),
(71,29,o),
(163,-16,o),
(250,-16,cs),
(360,-16,o),
(440,56,o),
(440,231,cs),
(440,248,l),
(358,248,l)
);
}
);
width = 540;
}
);
unicode = 74;
},
{
glyphname = K;
lastChange = "2025-06-23 18:54:10 +0000";
layers = (
{
layerId = m01;
shapes = (
{
closed = 1;
nodes = (
(127,222,l),
(470,700,l),
(427,700,l),
(84,222,l)
);
},
{
closed = 1;
nodes = (
(76,700,l),
(76,0,l),
(158,0,l),
(158,700,l)
);
},
{
closed = 1;
nodes = (
(218,400,l),
(396,0,l),
(488,0,l),
(280,450,l)
);
}
);
width = 540;
}
);
unicode = 75;
},
{
glyphname = L;
lastChange = "2025-06-20 22:48:57 +0000";
layers = (
{
layerId = m01;
shapes = (
{
closed = 1;
nodes = (
(152,0,l),
(152,700,l),
(70,700,l),
(70,0,l)
);
},
{
closed = 1;
nodes = (
(510,0,l),
(510,31,l),
(152,31,l),
(152,0,l)
);
}
);
width = 540;
}
);
unicode = 76;
},
{
glyphname = M;
lastChange = "2025-06-23 18:57:27 +0000";
layers = (
{
layerId = m01;
shapes = (
{
closed = 1;
nodes = (
(492,0,l),
(492,700,l),
(410,700,l),
(410,0,l)
);
},
{
closed = 1;
nodes = (
(264,0,l),
(445,700,l),
(410,700,l),
(264,125,l),
(76,700,l),
(40,700,l),
(40,1,l),
(76,1,l),
(76,476,l),
(224,1,l)
);
}
);
width = 540;
}
);
unicode = 77;
},
{
glyphname = N;
lastChange = "2025-06-23 18:55:28 +0000";
layers = (
{
layerId = m01;
shapes = (
{
closed = 1;
nodes = (
(470,0,l),
(470,700,l),
(434,700,l),
(434,125,l),
(106,700,l),
(70,700,l),
(70,1,l),
(106,1,l),
(106,576,l),
(434,1,l)
);
}
);
width = 540;
}
);
unicode = 78;
},
{
glyphname = O;
lastChange = "2025-06-20 18:09:25 +0000";
layers = (
{
layerId = m01;
shapes = (
{
closed = 1;
nodes = (
(400,-16,o),
(510,45,o),
(510,292,cs),
(510,292,o),
(510,371,o),
(510,408,cs),
(510,643,o),
(400,715,o),
(290,715,cs),
(180,715,o),
(70,643,o),
(70,408,cs),
(70,292,ls),
(70,45,o),
(180,-16,o),
(290,-16,cs)
);
},
{
closed = 0;
nodes = (
(70,264,l)
);
},
{
closed = 1;
nodes = (
(193,14,o),
(153,71,o),
(153,274,cs),
(153,416,ls),
(153,608,o),
(193,685,o),
(290,685,cs),
(387,685,o),
(427,608,o),
(427,416,cs),
(427,274,ls),
(427,77,o),
(405,14,o),
(290,14,cs)
);
}
);
width = 540;
}
);
unicode = 79;
},
{
glyphname = P;
lastChange = "2025-06-24 17:59:11 +0000";
layers = (
{
layerId = m01;
shapes = (
{
closed = 1;
nodes = (
(50,700,l),
(50,0,l),
(132,0,l),
(132,700,l)
);
},
{
closed = 1;
nodes = (
(270,670,l),
(387,670,o),
(407,613,o),
(407,496,cs),
(407,443,ls),
(407,321,o),
(387,244,o),
(270,244,c),
(270,214,l),
(400,214,o),
(490,286,o),
(490,451,cs),
(490,478,ls),
(490,639,o),
(400,700,o),
(270,700,c)
);
},
{
closed = 1;
nodes = (
(81,214,l),
(270,214,l),
(270,244,l),
(81,244,l)
);
},
{
closed = 1;
nodes = (
(81,670,l),
(270,670,l),
(270,700,l),
(81,700,l)
);
}
);
width = 540;
}
);
unicode = 80;
},
{
glyphname = Q;
lastChange = "2025-06-24 17:52:08 +0000";
layers = (
{
layerId = m01;
shapes = (
{
closed = 1;
nodes = (
(400,-16,o),
(510,45,o),
(510,292,cs),
(510,292,o),
(510,371,o),
(510,408,cs),
(510,643,o),
(400,715,o),
(290,715,cs),
(180,715,o),
(70,643,o),
(70,408,cs),
(70,292,ls),
(70,45,o),
(180,-16,o),
(290,-16,cs)
);
},
{
closed = 0;
nodes = (
(70,264,l)
);
},
{
closed = 1;
nodes = (
(193,14,o),
(153,71,o),
(153,274,cs),
(153,416,ls),
(153,608,o),
(193,685,o),
(290,685,cs),
(387,685,o),
(427,608,o),
(427,416,cs),
(427,274,ls),
(427,77,o),
(405,14,o),
(290,14,cs)
);
},
{
closed = 1;
nodes = (
(263,-7,l),
(263,-15,ls),
(263,-92,o),
(317,-125,o),
(366,-125,cs),
(404,-125,o),
(445,-105,o),
(445,-58,c),
(400,-58,l),
(400,-91,o),
(387,-112,o),
(356,-112,cs),
(313,-112,o),
(317,-73,o),
(317,-15,cs),
(317,-7,l)
);
}
);
width = 540;
}
);
unicode = 81;
},
{
glyphname = R;
lastChange = "2025-06-24 17:54:56 +0000";
layers = (
{
layerId = m01;
shapes = (
{
closed = 1;
nodes = (
(50,700,l),
(50,0,l),
(132,0,l),
(132,700,l)
);
},
{
closed = 1;
nodes = (
(270,670,l),
(387,670,o),
(407,633,o),
(407,526,cs),
(407,463,ls),
(407,371,o),
(387,294,o),
(270,294,c),
(270,264,l),
(400,264,o),
(490,336,o),
(490,471,cs),
(490,508,ls),
(490,659,o),
(400,700,o),
(270,700,c)
);
},
{
closed = 1;
nodes = (
(81,264,l),
(270,264,l),
(270,294,l),
(81,294,l)
);
},
{
closed = 1;
nodes = (
(81,670,l),
(270,670,l),
(270,700,l),
(81,700,l)
);
},
{
closed = 1;
nodes = (
(366,0,l),
(458,0,l),
(328,282,l),
(242,279,l)
);
}
);
width = 540;
}
);
unicode = 82;
},
{
glyphname = S;
lastChange = "2025-06-24 18:05:25 +0000";
layers = (
{
layerId = m01;
shapes = (
{
closed = 1;
nodes = (
(449,545,l),
(449,691,o),
(333,716,o),
(270,716,cs),
(195,716,o),
(93,658,o),
(93,521,cs),
(93,433,o),
(163,376,o),
(205,351,cs),
(290,301,ls),
(326,279,o),
(415,233,o),
(415,156,cs),
(415,51,o),
(332,17,o),
(272,17,cs),
(187,17,o),
(140,78,o),
(140,187,c),
(76,187,l),
(76,41,o),
(200,-16,o),
(283,-16,cs),
(353,-16,o),
(464,46,o),
(464,175,cs),
(464,285,o),
(373,339,o),
(335,365,cs),
(253,422,ls),
(219,445,o),
(141,482,o),
(141,559,cs),
(141,627,o),
(191,684,o),
(270,684,cs),
(350,684,o),
(387,621,o),
(387,545,c)
);
}
);
width = 540;
}
);
unicode = 83;
},
{
glyphname = T;
lastChange = "2025-06-20 23:06:49 +0000";
layers = (
{
layerId = m01;
shapes = (
{
closed = 1;
nodes = (
(30,669,l),
(510,669,l),
(510,700,l),
(30,700,l)
);
},
{
closed = 1;
nodes = (
(230,0,l),
(312,0,l),
(312,700,l),
(230,700,l)
);
}
);
width = 540;
}
);
unicode = 84;
},
{
glyphname = U;
lastChange = "2025-06-20 23:07:51 +0000";
layers = (
{
layerId = m01;
shapes = (
{
closed = 0;
nodes = (
(70,264,l)
);
},
{
closed = 1;
nodes = (
(478,700,l),
(478,274,ls),
(478,68,o),
(405,14,o),
(290,14,cs),
(193,14,o),
(153,71,o),
(153,274,cs),
(153,700,l),
(70,700,l),
(70,292,ls),
(70,45,o),
(180,-16,o),
(290,-16,cs),
(400,-16,o),
(510,25,o),
(510,272,c),
(510,700,l)
);
}
);
width = 540;
}
);
unicode = 85;
},
{
glyphname = V;
lastChange = "2025-06-24 17:55:19 +0000";
layers = (
{
layerId = m01;
shapes = (
{
closed = 1;
nodes = (
(310,0,l),
(142,700,l),
(60,700,l),
(228,0,l)
);
},
{
closed = 1;
nodes = (
(268,0,l),
(310,0,l),
(480,700,l),
(428,700,l)
);
}
);
width = 540;
}
);
unicode = 86;
},
{
glyphname = W;
lastChange = "2025-06-24 18:02:16 +0000";
layers = (
{
layerId = m01;
shapes = (
{
closed = 1;
nodes = (
(240,0,l),
(142,700,l),
(60,700,l),
(158,0,l)
);
},
{
closed = 1;
nodes = (
(380,0,l),
(282,700,l),
(200,700,l),
(298,0,l)
);
},
{
closed = 1;
nodes = (
(338,0,l),
(380,0,l),
(480,700,l),
(428,700,l)
);
},
{
closed = 1;
nodes = (
(262,498,l),
(198,0,l),
(240,0,l),
(287,330,l)
);
}
);
width = 540;
}
);
unicode = 87;
},
{
glyphname = X;
lastChange = "2025-06-24 17:57:41 +0000";
layers = (
{
layerId = m01;
shapes = (
{
closed = 1;
nodes = (
(480,0,l),
(152,700,l),
(70,700,l),
(398,0,l)
);
},
{
closed = 1;
nodes = (
(292,351,l),
(480,700,l),
(428,700,l),
(269,401,l)
);
},
{
closed = 1;
nodes = (
(263,401,l),
(60,0,l),
(102,0,l),
(286,351,l)
);
}
);
width = 540;
}
);
unicode = 88;
},
{
glyphname = Y;
lastChange = "2025-06-24 17:59:50 +0000";
layers = (
{
layerId = m01;
shapes = (
{
closed = 1;
nodes = (
(310,264,l),
(142,700,l),
(60,700,l),
(228,264,l)
);
},
{
closed = 1;
nodes = (
(310,0,l),
(310,275,l),
(228,275,l),
(228,0,l)
);
},
{
closed = 1;
nodes = (
(310,264,l),
(480,700,l),
(428,700,l),
(268,264,l)
);
}
);
width = 540;
}
);
unicode = 89;
},
{
glyphname = Z;
lastChange = "2025-06-20 19:40:50 +0000";
layers = (
{
layerId = m01;
shapes = (
{
closed = 1;
nodes = (
(55,0,l),
(495,0,l),
(495,36,l),
(150,36,l),
(465,664,l),
(465,700,l),
(56,700,l),
(56,664,l),
(371,664,l),
(56,36,l)
);
}
);
width = 540;
}
);
unicode = 90;
},
{
glyphname = a;
lastChange = "2025-06-20 22:41:06 +0000";
layers = (
{
layerId = m01;
shapes = (
{
closed = 1;
nodes = (
(485,0,l),
(485,202,l),
(403,202,l),
(403,0,l)
);
},
{
closed = 1;
nodes = (
(457,279,l),
(457,309,l),
(266,309,l),
(136,309,o),
(45,257,o),
(45,152,cs),
(45,45,o),
(166,-16,o),
(256,-16,cs),
(357,-16,o),
(403,55,o),
(403,70,cs),
(403,138,l),
(403,72,o),
(342,14,o),
(257,14,cs),
(256,14,ls),
(179,14,o),
(128,71,o),
(128,134,cs),
(128,160,ls),
(128,222,o),
(149,279,o),
(266,279,c)
);
},
{
closed = 1;
nodes = (
(485,191,l),
(485,268,ls),
(485,463,o),
(406,515,o),
(276,515,cs),
(169,515,o),
(77,470,o),
(77,364,c),
(155,364,l),
(155,440,o),
(186,487,o),
(276,487,cs),
(393,487,o),
(403,419,o),
(403,267,cs),
(403,191,l)
);
}
);
width = 540;
}
);
unicode = 97;
},
{
glyphname = b;
lastChange = "2025-06-20 20:13:09 +0000";
layers = (
{
layerId = m01;
shapes = (
{
closed = 1;
nodes = (
(132,700,l),
(50,700,l),
(50,0,l),
(132,0,l)
);
},
{
closed = 1;
nodes = (
(269,9,ls),
(194,9,o),
(132,67,o),
(132,133,c),
(132,65,ls),
(132,50,o),
(179,-17,o),
(270,-21,cs),
(400,-21,o),
(490,40,o),
(490,227,cs),
(490,264,ls),
(490,439,o),
(400,511,o),
(270,511,cs),
(160,511,o),
(50,439,o),
(50,264,cs),
(50,227,l),
(131,340,l),
(131,413,o),
(143,481,o),
(270,481,cs),
(387,481,o),
(407,404,o),
(407,272,cs),
(407,209,ls),
(407,66,o),
(387,9,o),
(270,9,cs)
);
}
);
width = 540;
}
);
unicode = 98;
},
{
glyphname = c;
lastChange = "2025-06-20 19:50:02 +0000";
layers = (
{
layerId = m01;
shapes = (
{
closed = 1;
nodes = (
(427,155,l),
(427,44,o),
(390,12,o),
(310,12,cs),
(193,12,o),
(153,100,o),
(153,232,cs),
(153,268,ls),
(153,400,o),
(192,488,o),
(299,488,cs),
(387,488,o),
(427,410,o),
(427,328,c),
(510,328,l),
(510,453,o),
(420,516,o),
(299,516,cs),
(179,516,o),
(70,444,o),
(70,269,cs),
(70,231,ls),
(70,56,o),
(180,-16,o),
(310,-16,cs),
(407,-16,o),
(510,44,o),
(510,155,c)
);
}
);
width = 540;
}
);
unicode = 99;
},
{
glyphname = d;
lastChange = "2025-06-20 20:16:07 +0000";
layers = (
{
layerId = m01;
shapes = (
{
closed = 1;
nodes = (
(360,-16,o),
(470,85,o),
(470,272,c),
(470,419,o),
(373,516,o),
(250,516,cs),
(120,516,o),
(30,444,o),
(30,269,cs),
(30,232,l),
(30,45,o),
(120,-16,o),
(250,-16,cs)
);
},
{
closed = 1;
nodes = (
(133,14,o),
(113,71,o),
(113,214,c),
(113,277,ls),
(113,409,o),
(133,486,o),
(250,486,cs),
(377,486,o),
(388,418,o),
(388,345,c),
(388,189,l),
(388,135,o),
(400,14,o),
(250,14,cs)
);
},
{
closed = 1;
nodes = (
(470,0,l),
(470,700,l),
(388,700,l),
(388,0,l)
);
}
);
width = 540;
}
);
unicode = 100;
},
{
glyphname = e;
lastChange = "2025-06-20 20:29:38 +0000";
layers = (
{
layerId = m01;
shapes = (
{
closed = 1;
nodes = (
(407,155,l),
(407,44,o),
(350,12,o),
(290,12,cs),
(173,12,o),
(133,100,o),
(133,232,cs),
(133,268,ls),
(133,400,o),
(173,488,o),
(270,488,cs),
(367,488,o),
(407,400,o),
(407,268,cs),
(407,265,ls),
(407,263,o),
(407,260,o),
(407,258,c),
(490,258,l),
(490,260,o),
(490,262,o),
(490,264,cs),
(490,269,ls),
(490,444,o),
(380,516,o),
(270,516,cs),
(160,516,o),
(50,444,o),
(50,269,cs),
(50,231,ls),
(50,56,o),
(160,-16,o),
(290,-16,cs),
(367,-16,o),
(490,44,o),
(490,155,c)
);
},
{
closed = 1;
nodes = (
(472,258,l),
(472,290,l),
(80,290,l),
(80,258,l)
);
}
);
width = 540;
}
);
unicode = 101;
},
{
glyphname = f;
lastChange = "2025-06-20 21:34:09 +0000";
layers = (
{
layerId = m01;
shapes = (
{
closed = 1;
nodes = (
(238,10,l),
(238,500,ls),
(238,632,o),
(239,686,o),
(326,686,cs),
(386,686,o),
(407,639,o),
(407,563,c),
(485,563,l),
(485,669,o),
(403,714,o),
(326,714,cs),
(226,714,o),
(156,676,o),
(156,501,cs),
(156,10,l)
);
},
{
closed = 1;
nodes = (
(67,470,l),
(397,470,l),
(397,500,l),
(67,500,l)
);
},
{
closed = 1;
nodes = (
(67,0,l),
(397,0,l),
(397,30,l),
(67,30,l)
);
}
);
width = 540;
}
);
unicode = 102;
},
{
glyphname = g;
lastChange = "2025-06-20 20:21:58 +0000";
layers = (
{
layerId = m01;
shapes = (
{
closed = 1;
nodes = (
(266,486,ls),
(341,486,o),
(403,428,o),
(403,362,c),
(403,430,ls),
(403,445,o),
(356,512,o),
(265,516,cs),
(135,516,o),
(45,455,o),
(45,268,cs),
(45,264,ls),
(45,89,o),
(135,17,o),
(265,17,cs),
(375,17,o),
(465,109,o),
(465,284,c),
(485,301,l),
(404,208,l),
(404,135,o),
(392,47,o),
(265,47,cs),
(148,47,o),
(128,124,o),
(128,256,cs),
(128,286,ls),
(128,429,o),
(148,486,o),
(265,486,cs)
);
},
{
closed = 1;
nodes = (
(404,52,l),
(486,52,l),
(485,500,l),
(403,500,l)
);
},
{
closed = 1;
nodes = (
(404,36,ls),
(404,-96,o),
(363,-184,o),
(266,-184,cs),
(196,-184,o),
(146,-137,o),
(135,-61,c),
(57,-61,l),
(84,-167,o),
(179,-212,o),
(266,-212,cs),
(376,-212,o),
(486,-140,o),
(486,35,cs),
(486,52,l),
(404,52,l)
);
}
);
width = 540;
}
);
unicode = 103;
},
{
glyphname = h;
lastChange = "2025-06-20 20:30:14 +0000";
layers = (
{
layerId = m01;
shapes = (
{
closed = 1;
nodes = (
(142,0,l),
(142,700,l),
(60,700,l),
(60,0,l)
);
},
{
closed = 1;
nodes = (
(500,0,l),
(500,365,l),
(418,352,l),
(418,0,l)
);
},
{
closed = 1;
nodes = (
(142,428,o),
(221,486,o),
(296,486,cs),
(363,486,o),
(418,458,o),
(418,352,c),
(500,365,l),
(500,469,o),
(433,516,o),
(306,516,cs),
(210,516,o),
(142,446,o),
(142,430,c),
(142,362,l)
);
}
);
width = 540;
}
);
unicode = 104;
},
{
glyphname = i;
lastChange = "2025-06-20 20:24:48 +0000";
layers = (
{
layerId = m01;
shapes = (
{
closed = 1;
nodes = (
(470,0,l),
(470,32,l),
(310,32,l),
(310,500,l),
(71,500,l),
(71,470,l),
(228,470,l),
(228,32,l),
(70,32,l),
(70,0,l)
);
},
{
closed = 1;
nodes = (
(299,568,o),
(316,585,o),
(316,615,cs),
(316,645,o),
(299,661,o),
(270,661,cs),
(240,661,o),
(223,645,o),
(223,615,cs),
(223,585,o),
(240,568,o),
(270,568,cs)
);
}
);
width = 540;
}
);
unicode = 105;
},
{
glyphname = j;
lastChange = "2025-06-20 20:25:14 +0000";
layers = (
{
layerId = m01;
shapes = (
{
closed = 1;
nodes = (
(440,36,l),
(440,500,l),
(141,500,l),
(141,470,l),
(358,470,l),
(358,36,l)
);
},
{
closed = 1;
nodes = (
(429,568,o),
(446,585,o),
(446,615,cs),
(446,645,o),
(429,661,o),
(400,661,cs),
(370,661,o),
(353,645,o),
(353,615,cs),
(353,585,o),
(370,568,o),
(400,568,cs)
);
},
{
closed = 1;
nodes = (
(358,20,ls),
(358,-112,o),
(347,-200,o),
(250,-200,cs),
(180,-200,o),
(149,-153,o),
(149,-77,c),
(71,-77,l),
(71,-183,o),
(163,-228,o),
(250,-228,cs),
(360,-228,o),
(440,-156,o),
(440,19,cs),
(440,36,l),
(358,36,l)
);
}
);
width = 540;
}
);
unicode = 106;
},
{
glyphname = k;
lastChange = "2025-06-20 22:40:29 +0000";
layers = (
{
layerId = m01;
shapes = (
{
closed = 1;
nodes = (
(127,202,l),
(434,501,l),
(391,501,l),
(84,202,l)
);
},
{
closed = 1;
nodes = (
(76,700,l),
(76,0,l),
(158,0,l),
(158,700,l)
);
},
{
closed = 1;
nodes = (
(195,288,l),
(396,0,l),
(478,0,l),
(247,338,l)
);
}
);
width = 540;
}
);
unicode = 107;
},
{
glyphname = l;
lastChange = "2025-06-24 18:07:57 +0000";
layers = (
{
layerId = m01;
shapes = (
{
closed = 1;
nodes = (
(470,0,l),
(470,32,l),
(310,32,l),
(310,700,l),
(71,700,l),
(71,670,l),
(228,670,l),
(228,32,l),
(70,32,l),
(70,0,l)
);
}
);
width = 539;
}
);
unicode = 108;
},
{
glyphname = m;
lastChange = "2025-06-21 00:42:44 +0000";
layers = (
{
layerId = m01;
shapes = (
{
closed = 1;
nodes = (
(121,0,l),
(121,500,l),
(50,500,l),
(50,0,l)
);
},
{
closed = 1;
nodes = (
(296,3,l),
(298,368,ls),
(298,472,o),
(284,519,o),
(207,519,cs),
(125,519,o),
(121,446,o),
(121,430,cs),
(121,362,l),
(121,428,o),
(140,489,o),
(190,489,cs),
(238,489,o),
(230,461,o),
(230,355,cs),
(229,3,l)
);
},
{
closed = 1;
nodes = (
(490,0,l),
(490,365,ls),
(490,469,o),
(469,516,o),
(372,516,cs),
(290,516,o),
(284,441,o),
(286,418,cs),
(291,364,l),
(291,430,o),
(305,486,o),
(355,486,cs),
(413,486,o),
(416,458,o),
(416,352,cs),
(416,0,l)
);
}
);
width = 540;
}
);
unicode = 109;
},
{
glyphname = n;
lastChange = "2025-06-21 00:42:28 +0000";
layers = (
{
layerId = m01;
shapes = (
{
closed = 1;
nodes = (
(132,0,l),
(132,500,l),
(50,500,l),
(50,0,l)
);
},
{
closed = 1;
nodes = (
(490,0,l),
(490,365,l),
(408,352,l),
(408,0,l)
);
},
{
closed = 1;
nodes = (
(132,428,o),
(211,486,o),
(286,486,cs),
(353,486,o),
(408,458,o),
(408,352,c),
(490,365,l),
(490,469,o),
(423,516,o),
(296,516,cs),
(200,516,o),
(132,446,o),
(132,430,c),
(132,362,l)
);
}
);
width = 540;
}
);
unicode = 110;
},
{
glyphname = o;
lastChange = "2025-06-20 20:29:01 +0000";
layers = (
{
layerId = m01;
shapes = (
{
closed = 1;
nodes = (
(407,232,ls),
(407,100,o),
(367,12,o),
(270,12,cs),
(173,12,o),
(133,100,o),
(133,232,cs),
(133,268,ls),
(133,400,o),
(173,488,o),
(270,488,cs),
(367,488,o),
(407,400,o),
(407,268,cs)
);
},
{
closed = 1;
nodes = (
(50,56,o),
(160,-16,o),
(270,-16,cs),
(380,-16,o),
(490,56,o),
(490,231,cs),
(490,269,ls),
(490,444,o),
(380,516,o),
(270,516,cs),
(160,516,o),
(50,444,o),
(50,269,cs),
(50,231,ls)
);
}
);
width = 540;
}
);
unicode = 111;
},
{
glyphname = p;
lastChange = "2025-06-20 20:23:34 +0000";
layers = (
{
layerId = m01;
shapes = (
{
closed = 1;
nodes = (
(50,495,l),
(50,-212,l),
(132,-212,l),
(132,495,l)
);
},
{
closed = 1;
nodes = (
(387,486,o),
(407,429,o),
(407,286,cs),
(407,223,ls),
(407,91,o),
(387,14,o),
(270,14,cs),
(143,14,o),
(131,82,o),
(131,155,c),
(50,268,l),
(50,231,ls),
(50,56,o),
(160,-16,o),
(270,-16,cs),
(400,-16,o),
(490,56,o),
(490,231,cs),
(490,268,ls),
(490,455,o),
(400,516,o),
(270,516,cs),
(179,512,o),
(132,445,o),
(132,430,cs),
(132,362,l),
(132,428,o),
(194,486,o),
(269,486,cs),
(270,486,ls)
);
}
);
width = 540;
}
);
unicode = 112;
},
{
glyphname = q;
lastChange = "2025-06-20 19:51:24 +0000";
layers = (
{
layerId = m01;
shapes = (
{
closed = 1;
nodes = (
(408,-305,l),
(490,-305,l),
(490,495,l),
(408,495,l)
);
},
{
closed = 1;
nodes = (
(271,486,ls),
(346,486,o),
(408,428,o),
(408,362,c),
(408,430,ls),
(408,445,o),
(361,512,o),
(270,516,cs),
(140,516,o),
(50,455,o),
(50,268,cs),
(50,231,ls),
(50,56,o),
(140,-16,o),
(270,-16,cs),
(380,-16,o),
(490,56,o),
(490,231,cs),
(490,268,l),
(409,155,l),
(409,82,o),
(397,14,o),
(270,14,cs),
(153,14,o),
(133,91,o),
(133,223,cs),
(133,286,ls),
(133,429,o),
(153,486,o),
(270,486,cs)
);
}
);
width = 540;
}
);
unicode = 113;
},
{
glyphname = r;
lastChange = "2025-06-20 19:46:57 +0000";
layers = (
{
layerId = m01;
shapes = (
{
closed = 1;
nodes = (
(374,0,l),
(374,32,l),
(224,32,l),
(224,500,l),
(45,500,l),
(45,470,l),
(142,470,l),
(142,32,l),
(44,32,l),
(44,0,l)
);
},
{
closed = 1;
nodes = (
(224,428,o),
(273,486,o),
(348,486,cs),
(415,486,o),
(440,458,o),
(440,365,c),
(522,365,l),
(522,469,o),
(485,516,o),
(358,516,cs),
(262,516,o),
(224,446,o),
(224,430,c),
(224,362,l)
);
}
);
width = 540;
}
);
unicode = 114;
},
{
glyphname = s;
lastChange = "2025-06-20 23:05:03 +0000";
layers = (
{
layerId = m01;
shapes = (
{
closed = 1;
nodes = (
(439,392,l),
(439,498,o),
(333,516,o),
(270,516,cs),
(195,516,o),
(93,474,o),
(93,374,cs),
(93,310,o),
(155,266,o),
(197,248,cs),
(282,211,ls),
(318,195,o),
(409,165,o),
(409,109,cs),
(409,39,o),
(322,20,o),
(272,20,cs),
(215,20,o),
(134,72,o),
(134,132,c),
(76,132,l),
(76,26,o),
(216,-16,o),
(283,-16,cs),
(353,-16,o),
(464,29,o),
(464,123,cs),
(464,231,o),
(375,257,o),
(335,274,cs),
(253,309,ls),
(217,324,o),
(151,346,o),
(151,402,cs),
(151,451,o),
(217,478,o),
(270,478,cs),
(341,478,o),
(382,447,o),
(382,392,c)
);
}
);
width = 540;
}
);
unicode = 115;
},
{
glyphname = t;
lastChange = "2025-06-27 16:30:16 +0000";
layers = (
{
layerId = m01;
shapes = (
{
closed = 1;
nodes = (
(439,-16,o),
(499,15,o),
(499,78,c),
(441,78,l),
(441,19,o),
(399,12,o),
(369,12,cs),
(292,12,o),
(261,66,o),
(261,198,cs),
(261,650,l),
(179,650,l),
(179,197,ls),
(179,22,o),
(279,-16,o),
(369,-16,cs)
);
},
{
closed = 1;
nodes = (
(90,470,l),
(450,470,l),
(450,500,l),
(90,500,l)
);
}
);
width = 540;
}
);
unicode = 116;
},
{
glyphname = u;
lastChange = "2025-06-20 19:52:07 +0000";
layers = (
{
layerId = m01;
shapes = (
{
closed = 1;
nodes = (
(408,500,l),
(408,0,l),
(490,0,l),
(490,500,l)
);
},
{
closed = 1;
nodes = (
(50,500,l),
(50,135,l),
(132,148,l),
(132,500,l)
);
},
{
closed = 1;
nodes = (
(408,72,o),
(329,14,o),
(254,14,cs),
(187,14,o),
(132,42,o),
(132,148,c),
(50,135,l),
(50,31,o),
(117,-16,o),
(244,-16,cs),
(340,-16,o),
(408,54,o),
(408,70,c),
(408,138,l)
);
}
);
width = 540;
}
);
unicode = 117;
},
{
glyphname = v;
lastChange = "2025-06-24 17:55:13 +0000";
layers = (
{
layerId = m01;
shapes = (
{
closed = 1;
nodes = (
(310,0,l),
(142,500,l),
(60,500,l),
(228,0,l)
);
},
{
closed = 1;
nodes = (
(268,0,l),
(310,0,l),
(480,500,l),
(428,500,l)
);
}
);
width = 540;
}
);
unicode = 118;
},
{
glyphname = w;
lastChange = "2025-06-20 22:41:52 +0000";
layers = (
{
layerId = m01;
shapes = (
{
closed = 1;
nodes = (
(239,0,l),
(131,500,l),
(59,500,l),
(167,0,l)
);
},
{
closed = 1;
nodes = (
(371,0,l),
(263,500,l),
(191,500,l),
(299,0,l)
);
},
{
closed = 1;
nodes = (
(329,0,l),
(371,0,l),
(481,500,l),
(429,500,l)
);
},
{
closed = 1;
nodes = (
(253,254,l),
(197,0,l),
(239,0,l),
(282,188,l)
);
}
);
width = 540;
}
);
unicode = 119;
},
{
glyphname = x;
lastChange = "2025-06-20 19:56:37 +0000";
layers = (
{
layerId = m01;
shapes = (
{
closed = 1;
nodes = (
(289,235,l),
(457,500,l),
(417,500,l),
(268,266,l)
);
},
{
closed = 1;
nodes = (
(472,0,l),
(153,500,l),
(70,500,l),
(389,0,l)
);
},
{
closed = 1;
nodes = (
(252,266,l),
(83,0,l),
(123,0,l),
(273,235,l)
);
}
);
width = 540;
}
);
unicode = 120;
},
{
glyphname = y;
lastChange = "2025-06-20 22:20:56 +0000";
layers = (
{
layerId = m01;
shapes = (
{
closed = 1;
nodes = (
(310,0,l),
(142,500,l),
(60,500,l),
(251,-67,l)
);
},
{
closed = 1;
nodes = (
(258,0,l),
(310,0,l),
(480,500,l),
(428,500,l)
);
},
{
closed = 1;
nodes = (
(90,-212,l),
(228,-215,o),
(256,-159,o),
(310,0,cs),
(444,390,l),
(391,390,l),
(258,0,ls),
(217,-123,o),
(220,-175,o),
(90,-174,c)
);
}
);
width = 540;
}
);
unicode = 121;
},
{
glyphname = z;
lastChange = "2025-06-20 22:15:27 +0000";
layers = (
{
layerId = m01;
shapes = (
{
closed = 1;
nodes = (
(470,32,l),
(70,32,l),
(70,0,l),
(470,0,l)
);
},
{
closed = 1;
nodes = (
(450,500,l),
(71,500,l),
(71,470,l),
(450,470,l)
);
},
{
closed = 1;
nodes = (
(348,470,l),
(71,32,l),
(173,32,l),
(450,470,l)
);
}
);
width = 540;
}
);
unicode = 122;
},
